<?xml version="1.0" encoding="utf-8"?>
<!-- Svg Vector Icons : http://www.onlinewebfonts.com/icon -->
<!DOCTYPE svg PUBLIC "-//W3C//DTD SVG 1.1//EN" "http://www.w3.org/Graphics/SVG/1.1/DTD/svg11.dtd">
<svg version="1.1" xmlns="http://www.w3.org/2000/svg" xmlns:xlink="http://www.w3.org/1999/xlink" x="0px" y="0px" viewBox="0 0 256 256" enable-background="new 0 0 256 256" xml:space="preserve">
<metadata> Svg Vector Icons : http://www.onlinewebfonts.com/icon </metadata>
<g><g><path fill="#000000" d="M183.4,72.3c4.4,0,7.9,3.5,7.9,7.9L177,238.1c0,4.4-3.5,7.9-7.9,7.9H86.9c-4.4,0-7.9-3.5-7.9-7.9L64.6,80.2c0-4.4,3.5-7.9,7.9-7.9h70.8l8.4-42.7l38-19.5L187,20.2l-28.2,14.2l-7.4,37.9L183.4,72.3L183.4,72.3z M139.9,127.7h31.7l-8.9,102.5H93.4l-8.9-102.5h47.4l9.9-47.5H72.6l14.4,157.9h82.2l14.4-157.9h-33.7L139.9,127.7L139.9,127.7z"/></g></g>
</svg>